<?xml version="1.0" encoding="UTF-8" standalone="no"?>
<!-- Created with Inkscape (http://www.inkscape.org/) -->
<svg
   xmlns:dc="http://purl.org/dc/elements/1.1/"
   xmlns:cc="http://creativecommons.org/ns#"
   xmlns:rdf="http://www.w3.org/1999/02/22-rdf-syntax-ns#"
   xmlns:svg="http://www.w3.org/2000/svg"
   xmlns="http://www.w3.org/2000/svg"
   xmlns:sodipodi="http://sodipodi.sourceforge.net/DTD/sodipodi-0.dtd"
   xmlns:inkscape="http://www.inkscape.org/namespaces/inkscape"
   width="744.09448819"
   height="1052.3622047"
   id="svg2"
   sodipodi:version="0.32"
   inkscape:version="0.46"
   sodipodi:docname="logo.svg"
   inkscape:output_extension="org.inkscape.output.svg.inkscape">
  <defs
     id="defs4">
    <inkscape:perspective
       sodipodi:type="inkscape:persp3d"
       inkscape:vp_x="0 : 526.18109 : 1"
       inkscape:vp_y="0 : 1000 : 0"
       inkscape:vp_z="744.09448 : 526.18109 : 1"
       inkscape:persp3d-origin="372.04724 : 350.78739 : 1"
       id="perspective10" />
    <filter
       inkscape:collect="always"
       id="filter3443">
      <feGaussianBlur
         inkscape:collect="always"
         stdDeviation="4.5176018"
         id="feGaussianBlur3445" />
    </filter>
    <inkscape:perspective
       id="perspective2429"
       inkscape:persp3d-origin="372.04724 : 350.78739 : 1"
       inkscape:vp_z="744.09448 : 526.18109 : 1"
       inkscape:vp_y="0 : 1000 : 0"
       inkscape:vp_x="0 : 526.18109 : 1"
       sodipodi:type="inkscape:persp3d" />
  </defs>
  <sodipodi:namedview
     id="base"
     pagecolor="#ffffff"
     bordercolor="#666666"
     borderopacity="1.0"
     gridtolerance="10000"
     guidetolerance="10"
     objecttolerance="10"
     inkscape:pageopacity="0.0"
     inkscape:pageshadow="2"
     inkscape:zoom="0.9899495"
     inkscape:cx="309.23212"
     inkscape:cy="477.54952"
     inkscape:document-units="px"
     inkscape:current-layer="layer1"
     showgrid="false"
     inkscape:window-width="1680"
     inkscape:window-height="994"
     inkscape:window-x="0"
     inkscape:window-y="22"
     showguides="true"
     inkscape:guide-bbox="true" />
  <metadata
     id="metadata7">
    <rdf:RDF>
      <cc:Work
         rdf:about="">
        <dc:format>image/svg+xml</dc:format>
        <dc:type
           rdf:resource="http://purl.org/dc/dcmitype/StillImage" />
      </cc:Work>
    </rdf:RDF>
  </metadata>
  <g
     inkscape:label="Layer 1"
     inkscape:groupmode="layer"
     id="layer1">
    <rect
       style="opacity:1;fill:#ffdd55;fill-opacity:1;fill-rule:nonzero;stroke:none;stroke-width:1;stroke-linecap:butt;stroke-linejoin:miter;marker:none;marker-start:none;marker-mid:none;marker-end:none;stroke-miterlimit:4;stroke-dasharray:none;stroke-dashoffset:0;stroke-opacity:1;visibility:visible;display:inline;overflow:visible;enable-background:accumulate"
       id="rect2413"
       width="119.12316"
       height="157.36961"
       x="25.829296"
       y="293.33545"
       transform="scale(-1,1)" />
    <g
       id="g3253"
       transform="translate(-217.14286,-318.57143)">
      <rect
         y="318.16574"
         x="86.964287"
         height="69.464287"
         width="112.5"
         id="rect3167"
         style="opacity:1;fill:#d7dfe2;fill-opacity:1;fill-rule:nonzero;stroke:none;stroke-width:1;stroke-linecap:butt;stroke-linejoin:miter;marker:none;marker-start:none;marker-mid:none;marker-end:none;stroke-miterlimit:4;stroke-dasharray:none;stroke-dashoffset:0;stroke-opacity:1;visibility:visible;display:inline;overflow:visible;enable-background:accumulate" />
      <rect
         y="318.21173"
         x="86.964287"
         height="28.3353"
         width="112.5"
         id="rect3169"
         style="opacity:1;fill:#ebeff0;fill-opacity:1;fill-rule:nonzero;stroke:none;stroke-width:1;stroke-linecap:butt;stroke-linejoin:miter;marker:none;marker-start:none;marker-mid:none;marker-end:none;stroke-miterlimit:4;stroke-dasharray:none;stroke-dashoffset:0;stroke-opacity:1;visibility:visible;display:inline;overflow:visible;enable-background:accumulate" />
      <rect
         y="367.23285"
         x="87.321426"
         height="20.129351"
         width="112.5"
         id="rect3176"
         style="opacity:1;fill:#b7c6cb;fill-opacity:1;fill-rule:nonzero;stroke:none;stroke-width:1;stroke-linecap:butt;stroke-linejoin:miter;marker:none;marker-start:none;marker-mid:none;marker-end:none;stroke-miterlimit:4;stroke-dasharray:none;stroke-dashoffset:0;stroke-opacity:1;visibility:visible;display:inline;overflow:visible;enable-background:accumulate" />
      <text
         sodipodi:linespacing="125%"
         id="text2383"
         y="369.50504"
         x="94.285713"
         style="font-size:40px;font-style:normal;font-weight:normal;line-height:125%;fill:#000000;fill-opacity:1;stroke:none;stroke-width:1px;stroke-linecap:butt;stroke-linejoin:miter;stroke-opacity:1;font-family:Bitstream Vera Sans"
         xml:space="preserve"><tspan
           style="font-size:72px;font-style:normal;font-variant:normal;font-weight:normal;font-stretch:normal;text-align:start;line-height:125%;writing-mode:lr-tb;text-anchor:start;font-family:Agency FB;-inkscape-font-specification:Agency FB"
           y="369.50504"
           x="94.285713"
           id="tspan2385"
           sodipodi:role="line">git</tspan></text>
      <text
         sodipodi:linespacing="125%"
         id="text2387"
         y="384.45706"
         x="148.34598"
         style="font-size:40px;font-style:normal;font-weight:normal;line-height:125%;fill:#000000;fill-opacity:1;stroke:none;stroke-width:1px;stroke-linecap:butt;stroke-linejoin:miter;stroke-opacity:1;font-family:Bitstream Vera Sans"
         xml:space="preserve"><tspan
           id="tspan2391"
           style="font-size:72px;font-style:normal;font-variant:normal;font-weight:normal;font-stretch:normal;text-align:start;line-height:125%;writing-mode:lr-tb;text-anchor:start;font-family:Agency FB;-inkscape-font-specification:Agency FB"
           y="384.45706"
           x="148.34598"
           sodipodi:role="line">#</tspan></text>
    </g>
    <rect
       style="opacity:1;fill:#d7dfe2;fill-opacity:1;fill-rule:nonzero;stroke:none;stroke-width:1;stroke-linecap:butt;stroke-linejoin:miter;marker:none;marker-start:none;marker-mid:none;marker-end:none;stroke-miterlimit:4;stroke-dasharray:none;stroke-dashoffset:0;stroke-opacity:1;visibility:visible;display:inline;overflow:visible;enable-background:accumulate"
       id="rect3262"
       width="73.928574"
       height="50.89286"
       x="-82.678589"
       y="110.67538" />
    <rect
       style="opacity:1;fill:#d7dfe2;fill-opacity:1;fill-rule:nonzero;stroke:none;stroke-width:1;stroke-linecap:butt;stroke-linejoin:miter;marker:none;marker-start:none;marker-mid:none;marker-end:none;stroke-miterlimit:4;stroke-dasharray:none;stroke-dashoffset:0;stroke-opacity:1;visibility:visible;display:inline;overflow:visible;enable-background:accumulate"
       id="rect3264"
       width="113.63642"
       height="58.105728"
       x="-147.85715"
       y="121.65753" />
    <rect
       style="opacity:1;fill:#b7c6cb;fill-opacity:1;fill-rule:nonzero;stroke:none;stroke-width:1;stroke-linecap:butt;stroke-linejoin:miter;marker:none;marker-start:none;marker-mid:none;marker-end:none;stroke-miterlimit:4;stroke-dasharray:none;stroke-dashoffset:0;stroke-opacity:1;visibility:visible;display:inline;overflow:visible;enable-background:accumulate"
       id="rect3266"
       width="19.285711"
       height="39.772205"
       x="-119.99999"
       y="139.98575" />
    <rect
       style="opacity:1;fill:#b7c6cb;fill-opacity:1;fill-rule:nonzero;stroke:none;stroke-width:1;stroke-linecap:butt;stroke-linejoin:miter;marker:none;marker-start:none;marker-mid:none;marker-end:none;stroke-miterlimit:4;stroke-dasharray:none;stroke-dashoffset:0;stroke-opacity:1;visibility:visible;display:inline;overflow:visible;enable-background:accumulate"
       id="rect3268"
       width="46.012672"
       height="40.044647"
       x="8.6956005"
       y="121.97003"
       transform="scale(-1,1)" />
    <rect
       style="opacity:1;fill:#b7c6cb;fill-opacity:1;fill-rule:nonzero;stroke:none;stroke-width:1;stroke-linecap:butt;stroke-linejoin:miter;marker:none;marker-start:none;marker-mid:none;marker-end:none;stroke-miterlimit:4;stroke-dasharray:none;stroke-dashoffset:0;stroke-opacity:1;visibility:visible;display:inline;overflow:visible;enable-background:accumulate"
       id="rect3270"
       width="74.01786"
       height="34.415066"
       x="-147.85715"
       y="127.66428" />
    <rect
       style="opacity:1;fill:#b7c6cb;fill-opacity:1;fill-rule:nonzero;stroke:none;stroke-width:1;stroke-linecap:butt;stroke-linejoin:miter;marker:none;marker-start:none;marker-mid:none;marker-end:none;stroke-miterlimit:4;stroke-dasharray:none;stroke-dashoffset:0;stroke-opacity:1;visibility:visible;display:inline;overflow:visible;enable-background:accumulate"
       id="rect3272"
       width="45.35714"
       height="34.181095"
       x="-53.928574"
       y="127.74042" />
    <rect
       style="opacity:1;fill:#b7c6cb;fill-opacity:1;fill-rule:nonzero;stroke:none;stroke-width:1;stroke-linecap:butt;stroke-linejoin:miter;marker:none;marker-start:none;marker-mid:none;marker-end:none;stroke-miterlimit:4;stroke-dasharray:none;stroke-dashoffset:0;stroke-opacity:1;visibility:visible;display:inline;overflow:visible;enable-background:accumulate"
       id="rect3274"
       width="19.017855"
       height="40.218632"
       x="-92.857147"
       y="110.70001" />
    <rect
       style="opacity:1;fill:#b7c6cb;fill-opacity:1;fill-rule:nonzero;stroke:none;stroke-width:1;stroke-linecap:butt;stroke-linejoin:miter;marker:none;marker-start:none;marker-mid:none;marker-end:none;stroke-miterlimit:4;stroke-dasharray:none;stroke-dashoffset:0;stroke-opacity:1;visibility:visible;display:inline;overflow:visible;enable-background:accumulate"
       id="rect3276"
       width="25.899651"
       height="49.252335"
       x="-73.839279"
       y="127.65378" />
    <path
       style="font-size:40px;font-style:normal;font-weight:normal;line-height:125%;fill:#000000;fill-opacity:1;stroke:none;stroke-width:1px;stroke-linecap:butt;stroke-linejoin:miter;stroke-opacity:1;font-family:Bitstream Vera Sans"
       d="M -92.750001,114.4025 L -92.750001,120.30875 L -88.000001,120.30875 L -88.000001,114.4025 L -92.750001,114.4025 z M -78.437501,117.1525 L -78.437501,127.80875 L -82.562501,127.80875 L -82.562501,131.93375 L -78.437501,131.93375 L -78.437501,158.0275 C -78.437501,160.67594 -77.125001,162.0275 -74.500001,162.0275 L -67.843751,162.0275 L -61.968751,161.93375 L -64.593751,176.965 L -60.156251,176.965 L -57.562501,161.93375 L -49.062501,161.93375 L -51.812501,176.965 L -47.343751,176.965 L -44.656251,161.93375 L -36.687501,161.93375 L -36.687501,157.87125 L -43.968751,157.87125 L -41.000001,141.0275 L -34.156251,141.0275 L -34.156251,136.99625 L -40.281251,136.99625 L -37.593751,121.93375 L -42.062501,121.93375 L -44.656251,136.99625 L -53.156251,136.99625 L -50.437501,121.93375 L -54.906251,121.93375 L -57.562501,136.99625 L -65.531251,136.99625 L -65.531251,141.0275 L -58.281251,141.0275 L -61.218751,157.87125 L -68.062501,157.87125 L -73.843751,157.9025 L -73.843751,131.93375 L -67.843751,131.93375 L -67.843751,127.80875 L -73.843751,127.80875 L -73.843751,117.1525 L -78.437501,117.1525 z M -113.625,127.81321 C -115.6172,127.81325 -117.21876,128.49684 -118.4375,129.84446 C -119.65625,131.19215 -120.28125,132.86011 -120.28125,134.87571 L -120.28125,154.6525 C -120.28125,156.76188 -119.57032,158.53922 -118.1875,159.93375 C -116.8047,161.32828 -115.08595,162.0275 -113,162.0275 L -105.28125,162.0275 L -105.28125,171.0275 L -115.0625,171.0275 L -115.0625,166.465 L -119.6875,166.465 C -119.6875,166.81655 -119.6836,167.39859 -119.71875,168.18375 C -119.75391,168.9689 -119.78125,169.56655 -119.78125,169.965 C -119.78125,173.31655 -118.44532,174.99624 -115.75,174.99625 L -104.625,174.99625 C -101.97659,174.99624 -100.65627,173.67593 -100.65625,171.0275 L -100.65625,127.80875 L -105.28125,127.80875 L -105.28125,127.80875 C -110.16296,127.79428 -113.08595,127.81325 -113.625,127.81321 z M -92.687501,127.80875 L -92.687501,162.0275 L -88.062501,162.0275 L -88.062501,127.80875 L -92.687501,127.80875 z M -111.75,131.93821 C -111.14064,131.93824 -108.98439,132.00297 -105.28125,132.05875 L -105.28125,157.9025 L -111.75,157.9025 C -114.32814,157.90251 -115.62501,156.59001 -115.625,153.965 L -115.625,135.87571 C -115.62501,133.25073 -114.32814,131.93824 -111.75,131.93821 z M -53.875001,141.0275 L -45.406251,141.0275 L -48.437501,157.87125 L -56.812501,157.87125 L -53.875001,141.0275 z"
       id="path3278"
       sodipodi:nodetypes="ccccccccccccccccccccccccccccccccccccccccccccccccsccsccccccsscccccccccccccccccccccccc" />
    <rect
       style="opacity:1;fill:#ffcc00;fill-opacity:1;fill-rule:nonzero;stroke:none;stroke-width:1;stroke-linecap:butt;stroke-linejoin:miter;marker:none;marker-start:none;marker-mid:none;marker-end:none;stroke-miterlimit:4;stroke-dasharray:none;stroke-dashoffset:0;stroke-opacity:1;visibility:visible;display:inline;overflow:visible;enable-background:accumulate"
       id="rect3282"
       width="65.091599"
       height="44.809437"
       x="-85.37886"
       y="212.43896" />
    <rect
       style="opacity:1;fill:#ffcc00;fill-opacity:1;fill-rule:nonzero;stroke:none;stroke-width:1;stroke-linecap:butt;stroke-linejoin:miter;marker:none;marker-start:none;marker-mid:none;marker-end:none;stroke-miterlimit:4;stroke-dasharray:none;stroke-dashoffset:0;stroke-opacity:1;visibility:visible;display:inline;overflow:visible;enable-background:accumulate"
       id="rect3284"
       width="87.382568"
       height="43.360306"
       x="-142.76636"
       y="227.52907" />
    <rect
       style="opacity:1;fill:#ffdd55;fill-opacity:1;fill-rule:nonzero;stroke:none;stroke-width:1;stroke-linecap:butt;stroke-linejoin:miter;marker:none;marker-start:none;marker-mid:none;marker-end:none;stroke-miterlimit:4;stroke-dasharray:none;stroke-dashoffset:0;stroke-opacity:1;visibility:visible;display:inline;overflow:visible;enable-background:accumulate"
       id="rect3286"
       width="17.244759"
       height="32.638958"
       x="-118.50343"
       y="238.24574" />
    <rect
       style="opacity:1;fill:#ffd42a;fill-opacity:1;fill-rule:nonzero;stroke:none;stroke-width:1;stroke-linecap:butt;stroke-linejoin:miter;marker:none;marker-start:none;marker-mid:none;marker-end:none;stroke-miterlimit:4;stroke-dasharray:none;stroke-dashoffset:0;stroke-opacity:1;visibility:visible;display:inline;overflow:visible;enable-background:accumulate"
       id="rect3300"
       width="40.155708"
       height="30.095291"
       x="-77.573746"
       y="222.15681" />
    <rect
       style="opacity:1;fill:#ffdd55;fill-opacity:1;fill-rule:nonzero;stroke:none;stroke-width:1;stroke-linecap:butt;stroke-linejoin:miter;marker:none;marker-start:none;marker-mid:none;marker-end:none;stroke-miterlimit:4;stroke-dasharray:none;stroke-dashoffset:0;stroke-opacity:1;visibility:visible;display:inline;overflow:visible;enable-background:accumulate"
       id="rect3288"
       width="40.336361"
       height="35.213894"
       x="20.415607"
       y="222.38351"
       transform="scale(-1,1)" />
    <rect
       style="opacity:1;fill:#ffdd55;fill-opacity:1;fill-rule:nonzero;stroke:none;stroke-width:1;stroke-linecap:butt;stroke-linejoin:miter;marker:none;marker-start:none;marker-mid:none;marker-end:none;stroke-miterlimit:4;stroke-dasharray:none;stroke-dashoffset:0;stroke-opacity:1;visibility:visible;display:inline;overflow:visible;enable-background:accumulate"
       id="rect3290"
       width="64.99398"
       height="30.169121"
       x="-142.59013"
       y="227.52928" />
    <rect
       style="opacity:1;fill:#ffd42a;fill-opacity:1;fill-rule:nonzero;stroke:none;stroke-width:1;stroke-linecap:butt;stroke-linejoin:miter;marker:none;marker-start:none;marker-mid:none;marker-end:none;stroke-miterlimit:4;stroke-dasharray:none;stroke-dashoffset:0;stroke-opacity:1;visibility:visible;display:inline;overflow:visible;enable-background:accumulate"
       id="rect3292"
       width="40.155708"
       height="13.177161"
       x="-101.17123"
       y="257.42334" />
    <rect
       style="opacity:1;fill:#ffdd55;fill-opacity:1;fill-rule:nonzero;stroke:none;stroke-width:1;stroke-linecap:butt;stroke-linejoin:miter;marker:none;marker-start:none;marker-mid:none;marker-end:none;stroke-miterlimit:4;stroke-dasharray:none;stroke-dashoffset:0;stroke-opacity:1;visibility:visible;display:inline;overflow:visible;enable-background:accumulate"
       id="rect3294"
       width="16.651114"
       height="35.41114"
       x="-94.247269"
       y="212.46065" />
    <rect
       style="opacity:1;fill:#ffdd55;fill-opacity:1;fill-rule:nonzero;stroke:none;stroke-width:1;stroke-linecap:butt;stroke-linejoin:miter;marker:none;marker-start:none;marker-mid:none;marker-end:none;stroke-miterlimit:4;stroke-dasharray:none;stroke-dashoffset:0;stroke-opacity:1;visibility:visible;display:inline;overflow:visible;enable-background:accumulate"
       id="rect3296"
       width="22.803761"
       height="43.365005"
       x="-77.596161"
       y="227.38786" />
    <rect
       style="opacity:1;fill:#ffd42a;fill-opacity:1;fill-rule:nonzero;stroke:none;stroke-width:1;stroke-linecap:butt;stroke-linejoin:miter;marker:none;marker-start:none;marker-mid:none;marker-end:none;stroke-miterlimit:4;stroke-dasharray:none;stroke-dashoffset:0;stroke-opacity:1;visibility:visible;display:inline;overflow:visible;enable-background:accumulate"
       id="rect3302"
       width="16.452703"
       height="14.983522"
       x="-77.485626"
       y="212.46413" />
    <path
       style="font-size:40px;font-style:normal;font-weight:normal;line-height:125%;fill:#000000;fill-opacity:1;stroke:none;stroke-width:1px;stroke-linecap:butt;stroke-linejoin:miter;stroke-opacity:1;font-family:Bitstream Vera Sans"
       d="M -94.246396,212.48062 L -94.246396,216.80857 L -90.064182,216.80857 L -90.064182,212.48062 L -94.246396,212.48062 z M -81.644726,218.14186 L -81.644726,227.52432 L -85.276648,227.52432 L -85.276648,231.15624 L -81.644726,231.15624 L -81.644726,254.1309 C -81.644726,256.46276 -80.489115,257.65277 -78.17789,257.65277 L -72.31729,257.65277 L -67.14455,257.57022 L -69.455775,270.80473 L -65.548708,270.80473 L -63.264999,257.57022 L -55.781036,257.57022 L -58.202319,270.80473 L -54.267736,270.80473 L -51.901483,257.57022 L -44.885272,257.57022 L -44.885272,253.99333 L -51.296163,253.99333 L -48.68228,239.16298 L -42.656591,239.16298 L -42.656591,235.6136 L -48.049446,235.6136 L -45.683193,222.35158 L -49.617774,222.35158 L -51.901483,235.6136 L -59.385444,235.6136 L -56.991679,222.35158 L -60.926262,222.35158 L -63.264999,235.6136 L -70.281212,235.6136 L -70.281212,239.16298 L -63.897835,239.16298 L -66.484203,253.99333 L -72.509893,253.99333 L -77.600084,254.02084 L -77.600084,231.15624 L -72.31729,231.15624 L -72.31729,227.52432 L -77.600084,227.52432 L -77.600084,218.14186 L -81.644726,218.14186 z M -112.62612,227.52825 C -114.38019,227.52828 -115.79031,228.13016 -116.86337,229.3167 C -117.93643,230.50329 -118.48672,231.97187 -118.48672,233.74654 L -118.48672,251.15933 C -118.48672,253.01657 -117.86078,254.58146 -116.64325,255.80929 C -115.42574,257.03713 -113.91244,257.65277 -112.07583,257.65277 L -105.27974,257.65277 L -105.27974,265.57696 L -113.89179,265.57696 L -113.89179,261.55984 L -117.96395,261.55984 C -117.96395,261.86936 -117.96051,262.38183 -117.99146,263.07314 C -118.02242,263.76443 -118.04649,264.29065 -118.04649,264.64147 C -118.04649,267.59239 -116.87025,269.0713 -114.49711,269.07131 L -104.70193,269.07131 C -102.37009,269.0713 -101.2076,267.90882 -101.20758,265.57696 L -101.20758,227.52432 L -105.27974,227.52432 L -105.27974,227.52432 C -109.57791,227.51158 -112.15151,227.52828 -112.62612,227.52825 z M -94.191368,227.52432 L -94.191368,257.65277 L -90.11921,257.65277 L -90.11921,227.52432 L -94.191368,227.52432 z M -110.97525,231.16017 C -110.43873,231.1602 -108.54022,231.21719 -105.27974,231.2663 L -105.27974,254.02084 L -110.97525,254.02084 C -113.24521,254.02085 -114.38706,252.86524 -114.38705,250.55401 L -114.38705,234.62701 C -114.38706,232.3158 -113.24521,231.1602 -110.97525,231.16017 z M -60.018282,239.16298 L -52.561834,239.16298 L -55.230746,253.99333 L -62.60465,253.99333 L -60.018282,239.16298 z"
       id="path3298"
       sodipodi:nodetypes="ccccccccccccccccccccccccccccccccccccccccccccccccsccsccccccsscccccccccccccccccccccccc" />
    <rect
       style="opacity:1;fill:#ffcc00;fill-opacity:1;fill-rule:nonzero;stroke:none;stroke-width:1;stroke-linecap:butt;stroke-linejoin:miter;marker:none;marker-start:none;marker-mid:none;marker-end:none;stroke-miterlimit:4;stroke-dasharray:none;stroke-dashoffset:0;stroke-opacity:1;visibility:visible;display:inline;overflow:visible;enable-background:accumulate"
       id="rect3306"
       width="4.1122508"
       height="4.4860978"
       x="-142.85712"
       y="212.36218" />
    <rect
       style="opacity:1;fill:#ffcc00;fill-opacity:1;fill-rule:nonzero;stroke:none;stroke-width:1;stroke-linecap:butt;stroke-linejoin:miter;marker:none;marker-start:none;marker-mid:none;marker-end:none;stroke-miterlimit:4;stroke-dasharray:none;stroke-dashoffset:0;stroke-opacity:1;visibility:visible;display:inline;overflow:visible;enable-background:accumulate"
       id="rect3308"
       width="4.1122508"
       height="4.2368693"
       x="-24.474012"
       y="266.44458" />
    <path
       style="font-size:40px;font-style:normal;font-weight:normal;line-height:125%;fill:#000000;fill-opacity:1;stroke:none;stroke-width:1px;stroke-linecap:butt;stroke-linejoin:miter;stroke-opacity:1;filter:url(#filter3443);font-family:Bitstream Vera Sans"
       d="M -217.64204,448.33955 C -218.07373,448.3372 -218.48842,448.50765 -218.79368,448.81291 C -219.09894,449.11817 -219.26939,449.53286 -219.26704,449.96455 L -219.26704,464.71455 C -219.26939,465.14624 -219.09894,465.56093 -218.79368,465.86619 C -218.48842,466.17145 -218.07373,466.3419 -217.64204,466.33955 L -203.39204,466.33955 C -202.96035,466.3419 -202.54566,466.17145 -202.2404,465.86619 C -201.93514,465.56093 -201.76469,465.14624 -201.76704,464.71455 L -201.76704,449.96455 C -201.76469,449.53286 -201.93514,449.11817 -202.2404,448.81291 C -202.54566,448.50765 -202.96035,448.3372 -203.39204,448.33955 L -217.64204,448.33955 z M -174.70454,467.6208 C -175.13623,467.61845 -175.55092,467.7889 -175.85618,468.09416 C -176.16144,468.39942 -176.33189,468.81411 -176.32954,469.2458 L -176.32954,499.5583 L -187.07954,499.5583 C -187.51123,499.55595 -187.92592,499.7264 -188.23118,500.03166 C -188.53644,500.33692 -188.70689,500.75161 -188.70454,501.1833 L -188.70454,513.5583 C -188.70689,513.98999 -188.53644,514.40468 -188.23118,514.70994 C -187.92592,515.0152 -187.51123,515.18565 -187.07954,515.1833 L -176.32954,515.1833 L -176.32954,591.8083 C -176.32954,596.04404 -175.25967,599.51099 -172.92329,601.90205 C -170.58691,604.29311 -167.13642,605.4333 -162.92329,605.4333 L -142.95454,605.4333 C -142.94412,605.4334 -142.93371,605.4334 -142.92329,605.4333 L -127.26704,605.1833 L -134.79829,648.3083 C -134.88443,648.78057 -134.75617,649.2667 -134.44825,649.63501 C -134.14032,650.00331 -133.68461,650.21566 -133.20454,650.21455 L -119.89204,650.21455 C -119.10431,650.21487 -118.43109,649.64725 -118.29829,648.8708 L -110.76704,605.15205 L -88.579543,605.15205 L -96.485793,648.3083 C -96.571933,648.78057 -96.443673,649.2667 -96.135753,649.63501 C -95.827823,650.00331 -95.372113,650.21566 -94.892043,650.21455 L -81.485793,650.21455 C -80.698063,650.21487 -80.024843,649.64725 -79.892043,648.8708 L -72.079543,605.15205 L -49.548293,605.15205 C -49.116603,605.1544 -48.701913,604.98395 -48.396653,604.67869 C -48.091393,604.37343 -47.920943,603.95874 -47.923293,603.52705 L -47.923293,591.33955 C -47.920943,590.90786 -48.091393,590.49317 -48.396653,590.18791 C -48.701913,589.88265 -49.116603,589.7122 -49.548293,589.71455 L -69.423293,589.71455 L -61.110793,542.46455 L -41.954543,542.46455 C -41.522853,542.4669 -41.108163,542.29645 -40.802903,541.99119 C -40.497643,541.68593 -40.327193,541.27124 -40.329543,540.83955 L -40.329543,528.7458 C -40.327193,528.31411 -40.497643,527.89942 -40.802903,527.59416 C -41.108163,527.2889 -41.522853,527.11845 -41.954543,527.1208 L -58.360793,527.1208 L -50.673293,483.8708 C -50.587153,483.39853 -50.715413,482.9124 -51.023333,482.54409 C -51.331263,482.17579 -51.786973,481.96344 -52.267043,481.96455 L -65.642043,481.96455 C -66.429773,481.96423 -67.102993,482.53185 -67.235793,483.3083 L -74.798293,527.1208 L -96.985793,527.1208 L -89.173293,483.8708 C -89.087153,483.39853 -89.215413,482.9124 -89.523333,482.54409 C -89.831263,482.17579 -90.286973,481.96344 -90.767043,481.96455 L -104.17329,481.96455 C -104.96102,481.96423 -105.63424,482.53185 -105.76704,483.3083 L -113.48579,527.1208 L -136.01704,527.1208 C -136.44873,527.11845 -136.86342,527.2889 -137.16868,527.59416 C -137.47394,527.89942 -137.64439,528.31411 -137.64204,528.7458 L -137.64204,540.83955 C -137.64439,541.27124 -137.47394,541.68593 -137.16868,541.99119 C -136.86342,542.29645 -136.44873,542.4669 -136.01704,542.46455 L -116.23579,542.46455 L -124.45454,589.71455 L -143.61079,589.71455 L -159.32954,589.8083 L -159.32954,515.1833 L -142.95454,515.1833 C -142.52285,515.18565 -142.10816,515.0152 -141.8029,514.70994 C -141.49764,514.40468 -141.32719,513.98999 -141.32954,513.5583 L -141.32954,501.1833 C -141.32719,500.75161 -141.49764,500.33692 -141.8029,500.03166 C -142.10816,499.7264 -142.52285,499.55595 -142.95454,499.5583 L -159.32954,499.5583 L -159.32954,469.2458 C -159.32719,468.81411 -159.49764,468.39942 -159.8029,468.09416 C -160.10816,467.7889 -160.52285,467.61845 -160.95454,467.6208 L -174.70454,467.6208 z M -255.20454,499.5583 C -269.84891,499.51489 -278.6697,499.58964 -280.23579,499.58955 C -286.57937,499.58965 -291.88787,501.85602 -295.82954,506.21455 C -299.74197,510.5409 -301.79829,515.99272 -301.79829,522.3708 L -301.79829,581.6833 C -301.79829,588.37163 -299.48335,594.17946 -295.04829,598.65205 C -290.62332,603.11456 -284.9769,605.4333 -278.36079,605.4333 L -256.82954,605.4333 L -256.82954,629.15205 L -282.89204,629.15205 L -282.89204,617.08955 C -282.88969,616.65786 -283.06014,616.24317 -283.3654,615.93791 C -283.67066,615.63265 -284.08535,615.4622 -284.51704,615.46455 L -298.39204,615.46455 C -298.82373,615.4622 -299.23842,615.63265 -299.54368,615.93791 C -299.84894,616.24317 -300.01939,616.65786 -300.01704,617.08955 C -300.01704,618.15549 -300.00723,619.87013 -300.11079,622.1833 C -300.21619,624.53663 -300.29829,626.32086 -300.29829,627.58955 C -300.29829,632.82914 -299.26502,636.97402 -296.92329,639.90205 C -294.58156,642.83008 -290.95655,644.30828 -286.57954,644.3083 L -253.23579,644.3083 C -248.99638,644.30828 -245.53839,643.20465 -243.17329,640.83955 C -240.80819,638.47445 -239.70458,635.01649 -239.70454,630.77705 L -239.70454,501.1833 C -239.70219,500.75161 -239.87264,500.33692 -240.1779,500.03166 C -240.48316,499.7264 -240.89785,499.55595 -241.32954,499.5583 L -255.20454,499.5583 z M -217.45454,499.5583 C -217.88623,499.55595 -218.30092,499.7264 -218.60618,500.03166 C -218.91144,500.33692 -219.08189,500.75161 -219.07954,501.1833 L -219.07954,603.8083 C -219.08189,604.23999 -218.91144,604.65468 -218.60618,604.95994 C -218.30092,605.2652 -217.88623,605.43565 -217.45454,605.4333 L -203.57954,605.4333 C -203.14785,605.43565 -202.73316,605.2652 -202.4279,604.95994 C -202.12264,604.65468 -201.95219,604.23999 -201.95454,603.8083 L -201.95454,501.1833 C -201.95219,500.75161 -202.12264,500.33692 -202.4279,500.03166 C -202.73316,499.7264 -203.14785,499.55595 -203.57954,499.5583 L -217.45454,499.5583 z M -274.61079,515.21455 C -273.02928,515.21465 -266.33583,515.37329 -256.82954,515.52705 L -256.82954,589.8083 L -274.61079,589.8083 C -278.20114,589.80832 -280.58694,588.92452 -282.14204,587.33955 C -283.69714,585.75458 -284.57955,583.29168 -284.57954,579.6208 L -284.57954,525.3708 C -284.57955,521.69995 -283.6956,519.22917 -282.14204,517.65205 C -280.58848,516.07493 -278.20333,515.2146 -274.61079,515.21455 z M -99.735793,542.46455 L -77.610793,542.46455 L -86.110793,589.71455 L -107.95454,589.71455 L -99.735793,542.46455 z"
       id="path3359"
       transform="matrix(0.4053469,0,0,0.4053469,-15.359471,174.43284)" />
    <path
       style="font-size:40px;font-style:normal;font-weight:normal;line-height:125%;fill:#ffffff;fill-opacity:1;stroke:none;stroke-width:1px;stroke-linecap:butt;stroke-linejoin:miter;stroke-opacity:1;font-family:Bitstream Vera Sans"
       d="M -103.70937,356.28145 C -103.88436,356.2805 -104.05245,356.34959 -104.17619,356.47333 C -104.29992,356.59707 -104.36901,356.76516 -104.36806,356.94014 L -104.36806,362.91901 C -104.36901,363.09399 -104.29992,363.26209 -104.17619,363.38582 C -104.05245,363.50956 -103.88436,363.57865 -103.70937,363.5777 L -97.933179,363.5777 C -97.758195,363.57865 -97.590102,363.50956 -97.466366,363.38582 C -97.342629,363.26209 -97.273538,363.09399 -97.274491,362.91901 L -97.274491,356.94014 C -97.273538,356.76516 -97.342629,356.59707 -97.466366,356.47333 C -97.590102,356.34959 -97.758195,356.2805 -97.933179,356.28145 L -103.70937,356.28145 z M -86.304791,364.09705 C -86.479775,364.0961 -86.647868,364.16519 -86.771604,364.28892 C -86.895341,364.41266 -86.964432,364.58075 -86.963479,364.75574 L -86.963479,377.04282 L -91.320958,377.04282 C -91.495943,377.04186 -91.664036,377.11095 -91.787772,377.23469 C -91.911508,377.35843 -91.9806,377.52652 -91.979647,377.7015 L -91.979647,382.71767 C -91.9806,382.89266 -91.911508,383.06075 -91.787772,383.18449 C -91.664036,383.30822 -91.495943,383.37731 -91.320958,383.37636 L -86.963479,383.37636 L -86.963479,414.43607 C -86.963479,416.15301 -86.529811,417.55833 -85.582767,418.52754 C -84.635722,419.49674 -83.237077,419.95892 -81.529298,419.95892 L -73.435027,419.95892 C -73.430803,419.95896 -73.426584,419.95896 -73.42236,419.95892 L -67.076148,419.85758 L -70.128917,437.33816 C -70.163833,437.5296 -70.111843,437.72665 -69.987029,437.87594 C -69.862211,438.02523 -69.67749,438.11131 -69.482895,438.11086 L -64.086715,438.11086 C -63.767411,438.11099 -63.494523,437.8809 -63.440693,437.56617 L -60.387924,419.84491 L -51.394292,419.84491 L -54.599065,437.33816 C -54.633982,437.5296 -54.581992,437.72665 -54.457178,437.87594 C -54.332359,438.02523 -54.147639,438.11131 -53.953044,438.11086 L -48.518862,438.11086 C -48.199558,438.11099 -47.926671,437.8809 -47.872841,437.56617 L -44.706068,419.84491 L -35.573096,419.84491 C -35.398112,419.84587 -35.230019,419.77677 -35.106282,419.65304 C -34.982546,419.5293 -34.913455,419.36121 -34.914407,419.18622 L -34.914407,414.24606 C -34.913455,414.07107 -34.982546,413.90298 -35.106282,413.77925 C -35.230019,413.65551 -35.398112,413.58642 -35.573096,413.58737 L -43.629365,413.58737 L -40.259919,394.43473 L -32.494993,394.43473 C -32.320009,394.43568 -32.151916,394.36659 -32.02818,394.24286 C -31.904443,394.11912 -31.835352,393.95103 -31.836305,393.77604 L -31.836305,388.87388 C -31.835352,388.69889 -31.904443,388.5308 -32.02818,388.40706 C -32.151916,388.28333 -32.320009,388.21424 -32.494993,388.21519 L -39.145216,388.21519 L -36.029111,370.68394 C -35.994195,370.4925 -36.046185,370.29545 -36.170999,370.14616 C -36.295817,369.99687 -36.480538,369.91079 -36.675133,369.91124 L -42.096648,369.91124 C -42.415951,369.91111 -42.688839,370.1412 -42.742669,370.45593 L -45.808105,388.21519 L -54.801739,388.21519 L -51.634966,370.68394 C -51.60005,370.4925 -51.65204,370.29545 -51.776854,370.14616 C -51.901672,369.99687 -52.086393,369.91079 -52.280988,369.91124 L -57.715168,369.91124 C -58.034472,369.91111 -58.30736,370.1412 -58.36119,370.45593 L -61.489961,388.21519 L -70.622933,388.21519 C -70.797917,388.21424 -70.966011,388.28333 -71.089747,388.40706 C -71.213483,388.5308 -71.282574,388.69889 -71.281622,388.87388 L -71.281622,393.77604 C -71.282574,393.95103 -71.213483,394.11912 -71.089747,394.24286 C -70.966011,394.36659 -70.797917,394.43568 -70.622933,394.43473 L -62.604665,394.43473 L -65.93611,413.58737 L -73.701036,413.58737 L -80.072582,413.62537 L -80.072582,383.37636 L -73.435027,383.37636 C -73.260043,383.37731 -73.09195,383.30822 -72.968213,383.18449 C -72.844477,383.06075 -72.775386,382.89266 -72.776338,382.71767 L -72.776338,377.7015 C -72.775386,377.52652 -72.844477,377.35843 -72.968213,377.23469 C -73.09195,377.11095 -73.260043,377.04186 -73.435027,377.04282 L -80.072582,377.04282 L -80.072582,364.75574 C -80.07163,364.58075 -80.140721,364.41266 -80.264457,364.28892 C -80.388194,364.16519 -80.556287,364.0961 -80.731271,364.09705 L -86.304791,364.09705 z M -118.93521,377.04282 C -124.87126,377.02522 -128.44674,377.05552 -129.08155,377.05548 C -131.6529,377.05552 -133.80469,377.97419 -135.40243,379.74091 C -136.98832,381.49458 -137.82185,383.70446 -137.82185,386.28979 L -137.82185,410.33193 C -137.82185,413.04302 -136.8835,415.39721 -135.08575,417.21016 C -133.29211,419.01902 -131.00335,419.95892 -128.32153,419.95892 L -119.5939,419.95892 L -119.5939,429.57324 L -130.15826,429.57324 L -130.15826,424.68374 C -130.1573,424.50876 -130.2264,424.34066 -130.35013,424.21693 C -130.47387,424.09319 -130.64196,424.0241 -130.81695,424.02505 L -136.44113,424.02505 C -136.61612,424.0241 -136.78421,424.09319 -136.90795,424.21693 C -137.03168,424.34066 -137.10077,424.50876 -137.09982,424.68374 C -137.09982,425.11582 -137.09585,425.81084 -137.13782,426.74848 C -137.18055,427.70239 -137.21383,428.42562 -137.21383,428.93988 C -137.21383,431.06373 -136.79499,432.74385 -135.84578,433.93072 C -134.89657,435.11758 -133.42718,435.71677 -131.65297,435.71678 L -118.13719,435.71678 C -116.41876,435.71677 -115.01707,435.26942 -114.05838,434.31073 C -113.0997,433.35204 -112.65235,431.95037 -112.65234,430.23193 L -112.65234,377.7015 C -112.65139,377.52652 -112.72048,377.35843 -112.84421,377.23469 C -112.96795,377.11095 -113.13604,377.04186 -113.31103,377.04282 L -118.93521,377.04282 z M -103.63337,377.04282 C -103.80835,377.04186 -103.97645,377.11095 -104.10018,377.23469 C -104.22392,377.35843 -104.29301,377.52652 -104.29206,377.7015 L -104.29206,419.30023 C -104.29301,419.47521 -104.22392,419.64331 -104.10018,419.76704 C -103.97645,419.89078 -103.80835,419.95987 -103.63337,419.95892 L -98.009182,419.95892 C -97.834198,419.95987 -97.666104,419.89078 -97.542368,419.76704 C -97.418632,419.64331 -97.349541,419.47521 -97.350493,419.30023 L -97.350493,377.7015 C -97.349541,377.52652 -97.418632,377.35843 -97.542368,377.23469 C -97.666104,377.11095 -97.834198,377.04186 -98.009182,377.04282 L -103.63337,377.04282 z M -126.80148,383.38903 C -126.16042,383.38907 -123.44725,383.45337 -119.5939,383.5157 L -119.5939,413.62537 L -126.80148,413.62537 C -128.25681,413.62538 -129.2239,413.26713 -129.85425,412.62467 C -130.4846,411.98221 -130.84229,410.98388 -130.84228,409.4959 L -130.84228,387.50583 C -130.84229,386.01786 -130.48398,385.01634 -129.85425,384.37706 C -129.22452,383.73778 -128.2577,383.38905 -126.80148,383.38903 z M -55.916442,394.43473 L -46.948143,394.43473 L -50.393592,413.58737 L -59.247886,413.58737 L -55.916442,394.43473 z"
       id="path3357" />
    <rect
       style="opacity:1;fill:#ffdd55;fill-opacity:1;fill-rule:nonzero;stroke:none;stroke-width:1;stroke-linecap:butt;stroke-linejoin:miter;marker:none;marker-start:none;marker-mid:none;marker-end:none;stroke-miterlimit:4;stroke-dasharray:none;stroke-dashoffset:0;stroke-opacity:1;visibility:visible;display:inline;overflow:visible;enable-background:accumulate"
       id="rect2414"
       width="119.12316"
       height="157.36961"
       x="25.291246"
       y="469.61127"
       transform="scale(-1,1)" />
    <path
       style="font-size:40px;font-style:normal;font-weight:normal;line-height:125%;opacity:1;fill:#000000;fill-opacity:1;fill-rule:nonzero;stroke:none;stroke-width:1px;stroke-linecap:butt;stroke-linejoin:miter;marker:none;marker-start:none;marker-mid:none;marker-end:none;stroke-miterlimit:4;stroke-dasharray:none;stroke-dashoffset:0;stroke-opacity:1;visibility:visible;display:inline;overflow:visible;enable-background:accumulate;font-family:Bitstream Vera Sans"
       d="M -103.73311,535.66564 C -103.9081,535.66469 -104.07619,535.73378 -104.19993,535.85752 C -104.32366,535.98126 -104.39275,536.14935 -104.3918,536.32433 L -104.3918,542.3032 C -104.39275,542.47818 -104.32366,542.64628 -104.19993,542.77001 C -104.07619,542.89375 -103.9081,542.96284 -103.73311,542.96189 L -97.956917,542.96189 C -97.781927,542.96284 -97.613837,542.89375 -97.490097,542.77001 C -97.366367,542.64628 -97.297277,542.47818 -97.298227,542.3032 L -97.298227,536.32433 C -97.297277,536.14935 -97.366367,535.98126 -97.490097,535.85752 C -97.613837,535.73378 -97.781927,535.66469 -97.956917,535.66564 L -103.73311,535.66564 z M -86.328527,543.48124 C -86.503507,543.48029 -86.671607,543.54938 -86.795337,543.67311 C -86.919077,543.79685 -86.988167,543.96494 -86.987217,544.13993 L -86.987217,556.42701 L -91.344697,556.42701 C -91.519677,556.42605 -91.687767,556.49514 -91.811507,556.61888 C -91.935247,556.74262 -92.004337,556.91071 -92.003387,557.08569 L -92.003387,562.10186 C -92.004337,562.27685 -91.935247,562.44494 -91.811507,562.56868 C -91.687767,562.69241 -91.519677,562.7615 -91.344697,562.76055 L -86.987217,562.76055 L -86.987217,593.82026 C -86.987217,595.5372 -86.553547,596.94252 -85.606507,597.91173 C -84.659457,598.88093 -83.260817,599.34311 -81.553037,599.34311 L -73.458767,599.34311 C -73.454537,599.34315 -73.450317,599.34315 -73.446097,599.34311 L -67.099887,599.24177 L -70.152657,616.72235 C -70.187567,616.91379 -70.135577,617.11084 -70.010767,617.26013 C -69.885947,617.40942 -69.701227,617.4955 -69.506627,617.49505 L -64.110447,617.49505 C -63.791147,617.49518 -63.518257,617.26509 -63.464427,616.95036 L -60.411657,599.2291 L -51.418027,599.2291 L -54.622797,616.72235 C -54.657717,616.91379 -54.605727,617.11084 -54.480917,617.26013 C -54.356097,617.40942 -54.171377,617.4955 -53.976777,617.49505 L -48.542597,617.49505 C -48.223297,617.49518 -47.950407,617.26509 -47.896577,616.95036 L -44.729807,599.2291 L -35.596827,599.2291 C -35.421847,599.23006 -35.253757,599.16096 -35.130017,599.03723 C -35.006277,598.91349 -34.937187,598.7454 -34.938147,598.57041 L -34.938147,593.63025 C -34.937187,593.45526 -35.006277,593.28717 -35.130017,593.16344 C -35.253757,593.0397 -35.421847,592.97061 -35.596827,592.97156 L -43.653097,592.97156 L -40.283657,573.81892 L -32.518727,573.81892 C -32.343747,573.81987 -32.175647,573.75078 -32.051917,573.62705 C -31.928177,573.50331 -31.859087,573.33522 -31.860037,573.16023 L -31.860037,568.25807 C -31.859087,568.08308 -31.928177,567.91499 -32.051917,567.79125 C -32.175647,567.66752 -32.343747,567.59843 -32.518727,567.59938 L -39.168947,567.59938 L -36.052847,550.06813 C -36.017927,549.87669 -36.069917,549.67964 -36.194737,549.53035 C -36.319557,549.38106 -36.504277,549.29498 -36.698867,549.29543 L -42.120387,549.29543 C -42.439687,549.2953 -42.712577,549.52539 -42.766407,549.84012 L -45.831837,567.59938 L -54.825477,567.59938 L -51.658697,550.06813 C -51.623787,549.87669 -51.675777,549.67964 -51.800587,549.53035 C -51.925407,549.38106 -52.110127,549.29498 -52.304727,549.29543 L -57.738907,549.29543 C -58.058207,549.2953 -58.331097,549.52539 -58.384927,549.84012 L -61.513697,567.59938 L -70.646667,567.59938 C -70.821657,567.59843 -70.989747,567.66752 -71.113487,567.79125 C -71.237217,567.91499 -71.306307,568.08308 -71.305357,568.25807 L -71.305357,573.16023 C -71.306307,573.33522 -71.237217,573.50331 -71.113487,573.62705 C -70.989747,573.75078 -70.821657,573.81987 -70.646667,573.81892 L -62.628397,573.81892 L -65.959847,592.97156 L -73.724767,592.97156 L -80.096317,593.00956 L -80.096317,562.76055 L -73.458767,562.76055 C -73.283777,562.7615 -73.115687,562.69241 -72.991947,562.56868 C -72.868217,562.44494 -72.799117,562.27685 -72.800077,562.10186 L -72.800077,557.08569 C -72.799117,556.91071 -72.868217,556.74262 -72.991947,556.61888 C -73.115687,556.49514 -73.283777,556.42605 -73.458767,556.42701 L -80.096317,556.42701 L -80.096317,544.13993 C -80.095367,543.96494 -80.164457,543.79685 -80.288197,543.67311 C -80.411927,543.54938 -80.580027,543.48029 -80.755007,543.48124 L -86.328527,543.48124 z M -118.95895,556.42701 C -124.895,556.40941 -128.47048,556.43971 -129.10529,556.43967 C -131.67664,556.43971 -133.82843,557.35838 -135.42617,559.1251 C -137.01206,560.87877 -137.84559,563.08865 -137.84559,565.67398 L -137.84559,589.71612 C -137.84559,592.42721 -136.90724,594.7814 -135.10949,596.59435 C -133.31585,598.40321 -131.02709,599.34311 -128.34527,599.34311 L -119.61764,599.34311 L -119.61764,608.95743 L -130.182,608.95743 L -130.182,604.06793 C -130.18104,603.89295 -130.25014,603.72485 -130.37387,603.60112 C -130.49761,603.47738 -130.6657,603.40829 -130.84069,603.40924 L -136.46487,603.40924 C -136.63986,603.40829 -136.80795,603.47738 -136.93169,603.60112 C -137.05542,603.72485 -137.12451,603.89295 -137.12356,604.06793 C -137.12356,604.50001 -137.11959,605.19503 -137.16156,606.13267 C -137.20429,607.08658 -137.23757,607.80981 -137.23757,608.32407 C -137.23757,610.44792 -136.81873,612.12804 -135.86952,613.31491 C -134.92031,614.50177 -133.45092,615.10096 -131.67671,615.10097 L -118.16093,615.10097 C -116.4425,615.10096 -115.04081,614.65361 -114.08212,613.69492 C -113.12344,612.73623 -112.67609,611.33456 -112.67608,609.61612 L -112.67608,557.08569 C -112.67513,556.91071 -112.74422,556.74262 -112.86795,556.61888 C -112.99169,556.49514 -113.15978,556.42605 -113.33477,556.42701 L -118.95895,556.42701 z M -103.65711,556.42701 C -103.83209,556.42605 -104.00019,556.49514 -104.12392,556.61888 C -104.24766,556.74262 -104.31675,556.91071 -104.3158,557.08569 L -104.3158,598.68442 C -104.31675,598.8594 -104.24766,599.0275 -104.12392,599.15123 C -104.00019,599.27497 -103.83209,599.34406 -103.65711,599.34311 L -98.032917,599.34311 C -97.857937,599.34406 -97.689837,599.27497 -97.566107,599.15123 C -97.442367,599.0275 -97.373277,598.8594 -97.374227,598.68442 L -97.374227,557.08569 C -97.373277,556.91071 -97.442367,556.74262 -97.566107,556.61888 C -97.689837,556.49514 -97.857937,556.42605 -98.032917,556.42701 L -103.65711,556.42701 z M -126.82522,562.77322 C -126.18416,562.77326 -123.47099,562.83756 -119.61764,562.89989 L -119.61764,593.00956 L -126.82522,593.00956 C -128.28055,593.00957 -129.24764,592.65132 -129.87799,592.00886 C -130.50834,591.3664 -130.86603,590.36807 -130.86602,588.88009 L -130.86602,566.89002 C -130.86603,565.40205 -130.50772,564.40053 -129.87799,563.76125 C -129.24826,563.12197 -128.28144,562.77324 -126.82522,562.77322 z M -55.940177,573.81892 L -46.971877,573.81892 L -50.417327,592.97156 L -59.271617,592.97156 L -55.940177,573.81892 z"
       id="path2416" />
    <text
       xml:space="preserve"
       style="font-size:62.03686905px;font-style:normal;font-variant:normal;font-weight:normal;font-stretch:normal;text-indent:0;text-align:start;text-decoration:none;line-height:125%;letter-spacing:normal;word-spacing:normal;text-transform:none;direction:ltr;block-progression:tb;writing-mode:lr-tb;text-anchor:start;opacity:0.48557691;fill:#008000;fill-opacity:1;fill-rule:nonzero;stroke:none;stroke-width:1px;stroke-linecap:butt;stroke-linejoin:miter;marker:none;marker-start:none;marker-mid:none;marker-end:none;stroke-miterlimit:4;stroke-dasharray:none;stroke-dashoffset:0;stroke-opacity:1;visibility:visible;display:inline;overflow:visible;enable-background:accumulate;font-family:Lucida Sans Typewriter;-inkscape-font-specification:Lucida Sans Typewriter"
       x="-139.9939"
       y="709.36841"
       id="text2418"
       sodipodi:linespacing="125%"><tspan
         sodipodi:role="line"
         id="tspan2420"
         x="-139.9939"
         y="709.36841">+++</tspan></text>
    <text
       xml:space="preserve"
       style="font-size:62.03686905px;font-style:normal;font-variant:normal;font-weight:normal;font-stretch:normal;text-indent:0;text-align:start;text-decoration:none;line-height:125%;letter-spacing:normal;word-spacing:normal;text-transform:none;direction:ltr;block-progression:tb;writing-mode:lr-tb;text-anchor:start;opacity:0.48557691;fill:#c00000;fill-opacity:1;fill-rule:nonzero;stroke:none;stroke-width:1px;stroke-linecap:butt;stroke-linejoin:miter;marker:none;marker-start:none;marker-mid:none;marker-end:none;stroke-miterlimit:4;stroke-dasharray:none;stroke-dashoffset:0;stroke-opacity:1;visibility:visible;display:inline;overflow:visible;enable-background:accumulate;font-family:Lucida Sans Typewriter;-inkscape-font-specification:Lucida Sans Typewriter"
       x="-141.29031"
       y="687.75183"
       id="text2435"
       sodipodi:linespacing="125%"><tspan
         sodipodi:role="line"
         id="tspan2437"
         x="-141.29031"
         y="687.75183">---</tspan></text>
    <path
       style="font-size:40px;font-style:normal;font-weight:normal;line-height:125%;opacity:1;fill:#000000;fill-opacity:1;fill-rule:nonzero;stroke:none;stroke-width:1px;stroke-linecap:butt;stroke-linejoin:miter;marker:none;marker-start:none;marker-mid:none;marker-end:none;stroke-miterlimit:4;stroke-dasharray:none;stroke-dashoffset:0;stroke-opacity:1;visibility:visible;display:inline;overflow:visible;enable-background:accumulate;font-family:Bitstream Vera Sans"
       d="M -102.72296,722.00814 C -102.89795,722.00719 -103.06604,722.07628 -103.18978,722.20002 C -103.31351,722.32376 -103.3826,722.49185 -103.38165,722.66683 L -103.38165,728.6457 C -103.3826,728.82068 -103.31351,728.98878 -103.18978,729.11251 C -103.06604,729.23625 -102.89795,729.30534 -102.72296,729.30439 L -96.946769,729.30439 C -96.771779,729.30534 -96.603689,729.23625 -96.479949,729.11251 C -96.356219,728.98878 -96.287129,728.82068 -96.288079,728.6457 L -96.288079,722.66683 C -96.287129,722.49185 -96.356219,722.32376 -96.479949,722.20002 C -96.603689,722.07628 -96.771779,722.00719 -96.946769,722.00814 L -102.72296,722.00814 z M -85.318379,729.82374 C -85.493359,729.82279 -85.661459,729.89188 -85.785189,730.01561 C -85.908929,730.13935 -85.978019,730.30744 -85.977069,730.48243 L -85.977069,742.76951 L -90.334549,742.76951 C -90.509529,742.76855 -90.677619,742.83764 -90.801359,742.96138 C -90.925099,743.08512 -90.994189,743.25321 -90.993239,743.42819 L -90.993239,748.44436 C -90.994189,748.61935 -90.925099,748.78744 -90.801359,748.91118 C -90.677619,749.03491 -90.509529,749.104 -90.334549,749.10305 L -85.977069,749.10305 L -85.977069,780.16276 C -85.977069,781.8797 -85.543399,783.28502 -84.596359,784.25423 C -83.649309,785.22343 -82.250669,785.68561 -80.542889,785.68561 L -72.448619,785.68561 C -72.444389,785.68565 -72.440169,785.68565 -72.435949,785.68561 L -66.089739,785.58427 L -69.142509,803.06485 C -69.177419,803.25629 -69.125429,803.45334 -69.000619,803.60263 C -68.875799,803.75192 -68.691079,803.838 -68.496479,803.83755 L -63.100299,803.83755 C -62.780999,803.83768 -62.508109,803.60759 -62.454279,803.29286 L -59.401509,785.5716 L -50.407879,785.5716 L -53.612649,803.06485 C -53.647569,803.25629 -53.595579,803.45334 -53.470769,803.60263 C -53.345949,803.75192 -53.161229,803.838 -52.966629,803.83755 L -47.532449,803.83755 C -47.213149,803.83768 -46.940259,803.60759 -46.886429,803.29286 L -43.719659,785.5716 L -34.586679,785.5716 C -34.411699,785.57256 -34.243609,785.50346 -34.119869,785.37973 C -33.996129,785.25599 -33.927039,785.0879 -33.927999,784.91291 L -33.927999,779.97275 C -33.927039,779.79776 -33.996129,779.62967 -34.119869,779.50594 C -34.243609,779.3822 -34.411699,779.31311 -34.586679,779.31406 L -42.642949,779.31406 L -39.273509,760.16142 L -31.508579,760.16142 C -31.333599,760.16237 -31.165499,760.09328 -31.041769,759.96955 C -30.918029,759.84581 -30.848939,759.67772 -30.849889,759.50273 L -30.849889,754.60057 C -30.848939,754.42558 -30.918029,754.25749 -31.041769,754.13375 C -31.165499,754.01002 -31.333599,753.94093 -31.508579,753.94188 L -38.158799,753.94188 L -35.042699,736.41063 C -35.007779,736.21919 -35.059769,736.02214 -35.184589,735.87285 C -35.309409,735.72356 -35.494129,735.63748 -35.688719,735.63793 L -41.110239,735.63793 C -41.429539,735.6378 -41.702429,735.86789 -41.756259,736.18262 L -44.821689,753.94188 L -53.815329,753.94188 L -50.648549,736.41063 C -50.613639,736.21919 -50.665629,736.02214 -50.790439,735.87285 C -50.915259,735.72356 -51.099979,735.63748 -51.294579,735.63793 L -56.728759,735.63793 C -57.048059,735.6378 -57.320949,735.86789 -57.374779,736.18262 L -60.503549,753.94188 L -69.636519,753.94188 C -69.811509,753.94093 -69.979599,754.01002 -70.103339,754.13375 C -70.227069,754.25749 -70.296159,754.42558 -70.295209,754.60057 L -70.295209,759.50273 C -70.296159,759.67772 -70.227069,759.84581 -70.103339,759.96955 C -69.979599,760.09328 -69.811509,760.16237 -69.636519,760.16142 L -61.618249,760.16142 L -64.949699,779.31406 L -72.714619,779.31406 L -79.086169,779.35206 L -79.086169,749.10305 L -72.448619,749.10305 C -72.273629,749.104 -72.105539,749.03491 -71.981799,748.91118 C -71.858069,748.78744 -71.788969,748.61935 -71.789929,748.44436 L -71.789929,743.42819 C -71.788969,743.25321 -71.858069,743.08512 -71.981799,742.96138 C -72.105539,742.83764 -72.273629,742.76855 -72.448619,742.76951 L -79.086169,742.76951 L -79.086169,730.48243 C -79.085219,730.30744 -79.154309,730.13935 -79.278049,730.01561 C -79.401779,729.89188 -79.569879,729.82279 -79.744859,729.82374 L -85.318379,729.82374 z M -117.9488,742.76951 C -123.88485,742.75191 -127.46033,742.78221 -128.09514,742.78217 C -130.66649,742.78221 -132.81828,743.70088 -134.41602,745.4676 C -136.00191,747.22127 -136.83544,749.43115 -136.83544,752.01648 L -136.83544,776.05862 C -136.83544,778.76971 -135.89709,781.1239 -134.09934,782.93685 C -132.3057,784.74571 -130.01694,785.68561 -127.33512,785.68561 L -118.60749,785.68561 L -118.60749,795.29993 L -129.17185,795.29993 L -129.17185,790.41043 C -129.17089,790.23545 -129.23999,790.06735 -129.36372,789.94362 C -129.48746,789.81988 -129.65555,789.75079 -129.83054,789.75174 L -135.45472,789.75174 C -135.62971,789.75079 -135.7978,789.81988 -135.92154,789.94362 C -136.04527,790.06735 -136.11436,790.23545 -136.11341,790.41043 C -136.11341,790.84251 -136.10944,791.53753 -136.15141,792.47517 C -136.19414,793.42908 -136.22742,794.15231 -136.22742,794.66657 C -136.22742,796.79042 -135.80858,798.47054 -134.85937,799.65741 C -133.91016,800.84427 -132.44077,801.44346 -130.66656,801.44347 L -117.15078,801.44347 C -115.43235,801.44346 -114.03066,800.99611 -113.07197,800.03742 C -112.11329,799.07873 -111.66594,797.67706 -111.66593,795.95862 L -111.66593,743.42819 C -111.66498,743.25321 -111.73407,743.08512 -111.8578,742.96138 C -111.98154,742.83764 -112.14963,742.76855 -112.32462,742.76951 L -117.9488,742.76951 z M -102.64696,742.76951 C -102.82194,742.76855 -102.99004,742.83764 -103.11377,742.96138 C -103.23751,743.08512 -103.3066,743.25321 -103.30565,743.42819 L -103.30565,785.02692 C -103.3066,785.2019 -103.23751,785.37 -103.11377,785.49373 C -102.99004,785.61747 -102.82194,785.68656 -102.64696,785.68561 L -97.022769,785.68561 C -96.847789,785.68656 -96.679689,785.61747 -96.555959,785.49373 C -96.432219,785.37 -96.363129,785.2019 -96.364079,785.02692 L -96.364079,743.42819 C -96.363129,743.25321 -96.432219,743.08512 -96.555959,742.96138 C -96.679689,742.83764 -96.847789,742.76855 -97.022769,742.76951 L -102.64696,742.76951 z M -125.81507,749.11572 C -125.17401,749.11576 -122.46084,749.18006 -118.60749,749.24239 L -118.60749,779.35206 L -125.81507,779.35206 C -127.2704,779.35207 -128.23749,778.99382 -128.86784,778.35136 C -129.49819,777.7089 -129.85588,776.71057 -129.85587,775.22259 L -129.85587,753.23252 C -129.85588,751.74455 -129.49757,750.74303 -128.86784,750.10375 C -128.23811,749.46447 -127.27129,749.11574 -125.81507,749.11572 z M -54.930029,760.16142 L -45.961729,760.16142 L -49.407179,779.31406 L -58.261469,779.31406 L -54.930029,760.16142 z"
       id="path3209" />
    <rect
       style="opacity:1;fill:none;fill-opacity:1;fill-rule:nonzero;stroke:#a7a7a7;stroke-width:5;stroke-linecap:butt;stroke-linejoin:miter;marker:none;marker-start:none;marker-mid:none;marker-end:none;stroke-miterlimit:4;stroke-dasharray:none;stroke-dashoffset:0;stroke-opacity:1;visibility:visible;display:inline;overflow:visible;enable-background:accumulate"
       id="rect3211"
       width="119.12316"
       height="157.36961"
       x="24.28108"
       y="652.44885"
       transform="scale(-1,1)" />
  </g>
</svg>
