<?xml version="1.0" encoding="UTF-8" standalone="no"?>
<!-- Created with Inkscape (http://www.inkscape.org/) -->
<svg
   xmlns:dc="http://purl.org/dc/elements/1.1/"
   xmlns:cc="http://creativecommons.org/ns#"
   xmlns:rdf="http://www.w3.org/1999/02/22-rdf-syntax-ns#"
   xmlns:svg="http://www.w3.org/2000/svg"
   xmlns="http://www.w3.org/2000/svg"
   xmlns:sodipodi="http://sodipodi.sourceforge.net/DTD/sodipodi-0.dtd"
   xmlns:inkscape="http://www.inkscape.org/namespaces/inkscape"
   width="744.09448819"
   height="1052.3622047"
   id="svg2"
   sodipodi:version="0.32"
   inkscape:version="0.46"
   sodipodi:docname="logo.svg"
   inkscape:output_extension="org.inkscape.output.svg.inkscape">
  <defs
     id="defs4">
    <inkscape:perspective
       sodipodi:type="inkscape:persp3d"
       inkscape:vp_x="0 : 526.18109 : 1"
       inkscape:vp_y="0 : 1000 : 0"
       inkscape:vp_z="744.09448 : 526.18109 : 1"
       inkscape:persp3d-origin="372.04724 : 350.78739 : 1"
       id="perspective10" />
  </defs>
  <sodipodi:namedview
     id="base"
     pagecolor="#ffffff"
     bordercolor="#666666"
     borderopacity="1.0"
     gridtolerance="10000"
     guidetolerance="10"
     objecttolerance="10"
     inkscape:pageopacity="0.0"
     inkscape:pageshadow="2"
     inkscape:zoom="0.49497475"
     inkscape:cx="643.48633"
     inkscape:cy="686.84023"
     inkscape:document-units="px"
     inkscape:current-layer="layer1"
     showgrid="false"
     inkscape:window-width="1680"
     inkscape:window-height="994"
     inkscape:window-x="-4"
     inkscape:window-y="-4"
     showguides="true"
     inkscape:guide-bbox="true" />
  <metadata
     id="metadata7">
    <rdf:RDF>
      <cc:Work
         rdf:about="">
        <dc:format>image/svg+xml</dc:format>
        <dc:type
           rdf:resource="http://purl.org/dc/dcmitype/StillImage" />
      </cc:Work>
    </rdf:RDF>
  </metadata>
  <g
     inkscape:label="Layer 1"
     inkscape:groupmode="layer"
     id="layer1">
    <g
       id="g3253"
       transform="translate(-217.14286,-318.57143)">
      <rect
         y="318.16574"
         x="86.964287"
         height="69.464287"
         width="112.5"
         id="rect3167"
         style="opacity:1;fill:#d7dfe2;fill-opacity:1;fill-rule:nonzero;stroke:none;stroke-width:1;stroke-linecap:butt;stroke-linejoin:miter;marker:none;marker-start:none;marker-mid:none;marker-end:none;stroke-miterlimit:4;stroke-dasharray:none;stroke-dashoffset:0;stroke-opacity:1;visibility:visible;display:inline;overflow:visible;enable-background:accumulate" />
      <rect
         y="318.21173"
         x="86.964287"
         height="28.3353"
         width="112.5"
         id="rect3169"
         style="opacity:1;fill:#ebeff0;fill-opacity:1;fill-rule:nonzero;stroke:none;stroke-width:1;stroke-linecap:butt;stroke-linejoin:miter;marker:none;marker-start:none;marker-mid:none;marker-end:none;stroke-miterlimit:4;stroke-dasharray:none;stroke-dashoffset:0;stroke-opacity:1;visibility:visible;display:inline;overflow:visible;enable-background:accumulate" />
      <rect
         y="367.23285"
         x="87.321426"
         height="20.129351"
         width="112.5"
         id="rect3176"
         style="opacity:1;fill:#b7c6cb;fill-opacity:1;fill-rule:nonzero;stroke:none;stroke-width:1;stroke-linecap:butt;stroke-linejoin:miter;marker:none;marker-start:none;marker-mid:none;marker-end:none;stroke-miterlimit:4;stroke-dasharray:none;stroke-dashoffset:0;stroke-opacity:1;visibility:visible;display:inline;overflow:visible;enable-background:accumulate" />
      <text
         sodipodi:linespacing="125%"
         id="text2383"
         y="369.50504"
         x="94.285713"
         style="font-size:40px;font-style:normal;font-weight:normal;line-height:125%;fill:#000000;fill-opacity:1;stroke:none;stroke-width:1px;stroke-linecap:butt;stroke-linejoin:miter;stroke-opacity:1;font-family:Bitstream Vera Sans"
         xml:space="preserve"><tspan
           style="font-size:72px;font-style:normal;font-variant:normal;font-weight:normal;font-stretch:normal;text-align:start;line-height:125%;writing-mode:lr-tb;text-anchor:start;font-family:Agency FB;-inkscape-font-specification:Agency FB"
           y="369.50504"
           x="94.285713"
           id="tspan2385"
           sodipodi:role="line">git</tspan></text>
      <text
         sodipodi:linespacing="125%"
         id="text2387"
         y="384.45706"
         x="148.34598"
         style="font-size:40px;font-style:normal;font-weight:normal;line-height:125%;fill:#000000;fill-opacity:1;stroke:none;stroke-width:1px;stroke-linecap:butt;stroke-linejoin:miter;stroke-opacity:1;font-family:Bitstream Vera Sans"
         xml:space="preserve"><tspan
           id="tspan2391"
           style="font-size:72px;font-style:normal;font-variant:normal;font-weight:normal;font-stretch:normal;text-align:start;line-height:125%;writing-mode:lr-tb;text-anchor:start;font-family:Agency FB;-inkscape-font-specification:Agency FB"
           y="384.45706"
           x="148.34598"
           sodipodi:role="line">#</tspan></text>
    </g>
    <rect
       style="opacity:1;fill:#d7dfe2;fill-opacity:1;fill-rule:nonzero;stroke:none;stroke-width:1;stroke-linecap:butt;stroke-linejoin:miter;marker:none;marker-start:none;marker-mid:none;marker-end:none;stroke-miterlimit:4;stroke-dasharray:none;stroke-dashoffset:0;stroke-opacity:1;visibility:visible;display:inline;overflow:visible;enable-background:accumulate"
       id="rect3262"
       width="73.928574"
       height="50.89286"
       x="-82.678589"
       y="110.67538" />
    <rect
       style="opacity:1;fill:#d7dfe2;fill-opacity:1;fill-rule:nonzero;stroke:none;stroke-width:1;stroke-linecap:butt;stroke-linejoin:miter;marker:none;marker-start:none;marker-mid:none;marker-end:none;stroke-miterlimit:4;stroke-dasharray:none;stroke-dashoffset:0;stroke-opacity:1;visibility:visible;display:inline;overflow:visible;enable-background:accumulate"
       id="rect3264"
       width="113.63642"
       height="58.105728"
       x="-147.85715"
       y="121.65753" />
    <rect
       style="opacity:1;fill:#b7c6cb;fill-opacity:1;fill-rule:nonzero;stroke:none;stroke-width:1;stroke-linecap:butt;stroke-linejoin:miter;marker:none;marker-start:none;marker-mid:none;marker-end:none;stroke-miterlimit:4;stroke-dasharray:none;stroke-dashoffset:0;stroke-opacity:1;visibility:visible;display:inline;overflow:visible;enable-background:accumulate"
       id="rect3266"
       width="19.285711"
       height="39.772205"
       x="-119.99999"
       y="139.98575" />
    <rect
       style="opacity:1;fill:#b7c6cb;fill-opacity:1;fill-rule:nonzero;stroke:none;stroke-width:1;stroke-linecap:butt;stroke-linejoin:miter;marker:none;marker-start:none;marker-mid:none;marker-end:none;stroke-miterlimit:4;stroke-dasharray:none;stroke-dashoffset:0;stroke-opacity:1;visibility:visible;display:inline;overflow:visible;enable-background:accumulate"
       id="rect3268"
       width="46.012672"
       height="40.044647"
       x="8.6956005"
       y="121.97003"
       transform="scale(-1,1)" />
    <rect
       style="opacity:1;fill:#b7c6cb;fill-opacity:1;fill-rule:nonzero;stroke:none;stroke-width:1;stroke-linecap:butt;stroke-linejoin:miter;marker:none;marker-start:none;marker-mid:none;marker-end:none;stroke-miterlimit:4;stroke-dasharray:none;stroke-dashoffset:0;stroke-opacity:1;visibility:visible;display:inline;overflow:visible;enable-background:accumulate"
       id="rect3270"
       width="74.01786"
       height="34.415066"
       x="-147.85715"
       y="127.66428" />
    <rect
       style="opacity:1;fill:#b7c6cb;fill-opacity:1;fill-rule:nonzero;stroke:none;stroke-width:1;stroke-linecap:butt;stroke-linejoin:miter;marker:none;marker-start:none;marker-mid:none;marker-end:none;stroke-miterlimit:4;stroke-dasharray:none;stroke-dashoffset:0;stroke-opacity:1;visibility:visible;display:inline;overflow:visible;enable-background:accumulate"
       id="rect3272"
       width="45.35714"
       height="34.181095"
       x="-53.928574"
       y="127.74042" />
    <rect
       style="opacity:1;fill:#b7c6cb;fill-opacity:1;fill-rule:nonzero;stroke:none;stroke-width:1;stroke-linecap:butt;stroke-linejoin:miter;marker:none;marker-start:none;marker-mid:none;marker-end:none;stroke-miterlimit:4;stroke-dasharray:none;stroke-dashoffset:0;stroke-opacity:1;visibility:visible;display:inline;overflow:visible;enable-background:accumulate"
       id="rect3274"
       width="19.017855"
       height="40.218632"
       x="-92.857147"
       y="110.70001" />
    <rect
       style="opacity:1;fill:#b7c6cb;fill-opacity:1;fill-rule:nonzero;stroke:none;stroke-width:1;stroke-linecap:butt;stroke-linejoin:miter;marker:none;marker-start:none;marker-mid:none;marker-end:none;stroke-miterlimit:4;stroke-dasharray:none;stroke-dashoffset:0;stroke-opacity:1;visibility:visible;display:inline;overflow:visible;enable-background:accumulate"
       id="rect3276"
       width="25.899651"
       height="49.252335"
       x="-73.839279"
       y="127.65378" />
    <path
       style="font-size:40px;font-style:normal;font-weight:normal;line-height:125%;fill:#000000;fill-opacity:1;stroke:none;stroke-width:1px;stroke-linecap:butt;stroke-linejoin:miter;stroke-opacity:1;font-family:Bitstream Vera Sans"
       d="M -92.750001,114.4025 L -92.750001,120.30875 L -88.000001,120.30875 L -88.000001,114.4025 L -92.750001,114.4025 z M -78.437501,117.1525 L -78.437501,127.80875 L -82.562501,127.80875 L -82.562501,131.93375 L -78.437501,131.93375 L -78.437501,158.0275 C -78.437501,160.67594 -77.125001,162.0275 -74.500001,162.0275 L -67.843751,162.0275 L -61.968751,161.93375 L -64.593751,176.965 L -60.156251,176.965 L -57.562501,161.93375 L -49.062501,161.93375 L -51.812501,176.965 L -47.343751,176.965 L -44.656251,161.93375 L -36.687501,161.93375 L -36.687501,157.87125 L -43.968751,157.87125 L -41.000001,141.0275 L -34.156251,141.0275 L -34.156251,136.99625 L -40.281251,136.99625 L -37.593751,121.93375 L -42.062501,121.93375 L -44.656251,136.99625 L -53.156251,136.99625 L -50.437501,121.93375 L -54.906251,121.93375 L -57.562501,136.99625 L -65.531251,136.99625 L -65.531251,141.0275 L -58.281251,141.0275 L -61.218751,157.87125 L -68.062501,157.87125 L -73.843751,157.9025 L -73.843751,131.93375 L -67.843751,131.93375 L -67.843751,127.80875 L -73.843751,127.80875 L -73.843751,117.1525 L -78.437501,117.1525 z M -113.625,127.81321 C -115.6172,127.81325 -117.21876,128.49684 -118.4375,129.84446 C -119.65625,131.19215 -120.28125,132.86011 -120.28125,134.87571 L -120.28125,154.6525 C -120.28125,156.76188 -119.57032,158.53922 -118.1875,159.93375 C -116.8047,161.32828 -115.08595,162.0275 -113,162.0275 L -105.28125,162.0275 L -105.28125,171.0275 L -115.0625,171.0275 L -115.0625,166.465 L -119.6875,166.465 C -119.6875,166.81655 -119.6836,167.39859 -119.71875,168.18375 C -119.75391,168.9689 -119.78125,169.56655 -119.78125,169.965 C -119.78125,173.31655 -118.44532,174.99624 -115.75,174.99625 L -104.625,174.99625 C -101.97659,174.99624 -100.65627,173.67593 -100.65625,171.0275 L -100.65625,127.80875 L -105.28125,127.80875 L -105.28125,127.80875 C -110.16296,127.79428 -113.08595,127.81325 -113.625,127.81321 z M -92.687501,127.80875 L -92.687501,162.0275 L -88.062501,162.0275 L -88.062501,127.80875 L -92.687501,127.80875 z M -111.75,131.93821 C -111.14064,131.93824 -108.98439,132.00297 -105.28125,132.05875 L -105.28125,157.9025 L -111.75,157.9025 C -114.32814,157.90251 -115.62501,156.59001 -115.625,153.965 L -115.625,135.87571 C -115.62501,133.25073 -114.32814,131.93824 -111.75,131.93821 z M -53.875001,141.0275 L -45.406251,141.0275 L -48.437501,157.87125 L -56.812501,157.87125 L -53.875001,141.0275 z"
       id="path3278"
       sodipodi:nodetypes="ccccccccccccccccccccccccccccccccccccccccccccccccsccsccccccsscccccccccccccccccccccccc" />
    <rect
       style="opacity:1;fill:#ffcc00;fill-opacity:1;fill-rule:nonzero;stroke:none;stroke-width:1;stroke-linecap:butt;stroke-linejoin:miter;marker:none;marker-start:none;marker-mid:none;marker-end:none;stroke-miterlimit:4;stroke-dasharray:none;stroke-dashoffset:0;stroke-opacity:1;visibility:visible;display:inline;overflow:visible;enable-background:accumulate"
       id="rect3282"
       width="373.10474"
       height="256.84747"
       x="352.3223"
       y="352.80231" />
    <rect
       style="opacity:1;fill:#ffcc00;fill-opacity:1;fill-rule:nonzero;stroke:none;stroke-width:1;stroke-linecap:butt;stroke-linejoin:miter;marker:none;marker-start:none;marker-mid:none;marker-end:none;stroke-miterlimit:4;stroke-dasharray:none;stroke-dashoffset:0;stroke-opacity:1;visibility:visible;display:inline;overflow:visible;enable-background:accumulate"
       id="rect3284"
       width="500.87646"
       height="248.54106"
       x="23.377401"
       y="439.29874" />
    <rect
       style="opacity:1;fill:#ffdd55;fill-opacity:1;fill-rule:nonzero;stroke:none;stroke-width:1;stroke-linecap:butt;stroke-linejoin:miter;marker:none;marker-start:none;marker-mid:none;marker-end:none;stroke-miterlimit:4;stroke-dasharray:none;stroke-dashoffset:0;stroke-opacity:1;visibility:visible;display:inline;overflow:visible;enable-background:accumulate"
       id="rect3286"
       width="98.846878"
       height="187.08636"
       x="162.45238"
       y="500.72662" />
    <rect
       style="opacity:1;fill:#ffd42a;fill-opacity:1;fill-rule:nonzero;stroke:none;stroke-width:1;stroke-linecap:butt;stroke-linejoin:miter;marker:none;marker-start:none;marker-mid:none;marker-end:none;stroke-miterlimit:4;stroke-dasharray:none;stroke-dashoffset:0;stroke-opacity:1;visibility:visible;display:inline;overflow:visible;enable-background:accumulate"
       id="rect3300"
       width="230.17233"
       height="172.50607"
       x="397.06119"
       y="408.50494" />
    <rect
       style="opacity:1;fill:#ffdd55;fill-opacity:1;fill-rule:nonzero;stroke:none;stroke-width:1;stroke-linecap:butt;stroke-linejoin:miter;marker:none;marker-start:none;marker-mid:none;marker-end:none;stroke-miterlimit:4;stroke-dasharray:none;stroke-dashoffset:0;stroke-opacity:1;visibility:visible;display:inline;overflow:visible;enable-background:accumulate"
       id="rect3288"
       width="231.20782"
       height="201.84587"
       x="-724.69135"
       y="409.80441"
       transform="scale(-1,1)" />
    <rect
       style="opacity:1;fill:#ffdd55;fill-opacity:1;fill-rule:nonzero;stroke:none;stroke-width:1;stroke-linecap:butt;stroke-linejoin:miter;marker:none;marker-start:none;marker-mid:none;marker-end:none;stroke-miterlimit:4;stroke-dasharray:none;stroke-dashoffset:0;stroke-opacity:1;visibility:visible;display:inline;overflow:visible;enable-background:accumulate"
       id="rect3290"
       width="372.5452"
       height="172.92926"
       x="24.387556"
       y="439.29996" />
    <rect
       style="opacity:1;fill:#ffd42a;fill-opacity:1;fill-rule:nonzero;stroke:none;stroke-width:1;stroke-linecap:butt;stroke-linejoin:miter;marker:none;marker-start:none;marker-mid:none;marker-end:none;stroke-miterlimit:4;stroke-dasharray:none;stroke-dashoffset:0;stroke-opacity:1;visibility:visible;display:inline;overflow:visible;enable-background:accumulate"
       id="rect3292"
       width="230.17233"
       height="75.531425"
       x="261.80054"
       y="610.65253" />
    <rect
       style="opacity:1;fill:#ffdd55;fill-opacity:1;fill-rule:nonzero;stroke:none;stroke-width:1;stroke-linecap:butt;stroke-linejoin:miter;marker:none;marker-start:none;marker-mid:none;marker-end:none;stroke-miterlimit:4;stroke-dasharray:none;stroke-dashoffset:0;stroke-opacity:1;visibility:visible;display:inline;overflow:visible;enable-background:accumulate"
       id="rect3294"
       width="95.444107"
       height="202.97649"
       x="301.48862"
       y="352.92661" />
    <rect
       style="opacity:1;fill:#ffdd55;fill-opacity:1;fill-rule:nonzero;stroke:none;stroke-width:1;stroke-linecap:butt;stroke-linejoin:miter;marker:none;marker-start:none;marker-mid:none;marker-end:none;stroke-miterlimit:4;stroke-dasharray:none;stroke-dashoffset:0;stroke-opacity:1;visibility:visible;display:inline;overflow:visible;enable-background:accumulate"
       id="rect3296"
       width="130.71104"
       height="248.56801"
       x="396.93268"
       y="438.48932" />
    <rect
       style="opacity:1;fill:#ffd42a;fill-opacity:1;fill-rule:nonzero;stroke:none;stroke-width:1;stroke-linecap:butt;stroke-linejoin:miter;marker:none;marker-start:none;marker-mid:none;marker-end:none;stroke-miterlimit:4;stroke-dasharray:none;stroke-dashoffset:0;stroke-opacity:1;visibility:visible;display:inline;overflow:visible;enable-background:accumulate"
       id="rect3302"
       width="94.306816"
       height="85.885483"
       x="397.56628"
       y="352.94656" />
    <path
       style="font-size:40px;font-style:normal;font-weight:normal;line-height:125%;fill:#000000;fill-opacity:1;stroke:none;stroke-width:1px;stroke-linecap:butt;stroke-linejoin:miter;stroke-opacity:1;font-family:Bitstream Vera Sans"
       d="M 301.49361,353.04104 L 301.49361,377.84886 L 325.46604,377.84886 L 325.46604,353.04104 L 301.49361,353.04104 z M 373.72632,385.49126 L 373.72632,439.27149 L 352.90816,439.27149 L 352.90816,460.08966 L 373.72632,460.08966 L 373.72632,591.78029 C 373.72632,605.14651 380.35028,611.96761 393.59821,611.96761 L 427.19114,611.96761 L 456.84126,611.49446 L 443.59333,687.35458 L 465.98862,687.35458 L 479.07883,611.49446 L 521.97687,611.49446 L 508.09809,687.35458 L 530.6511,687.35458 L 544.21445,611.49446 L 584.43134,611.49446 L 584.43134,590.99173 L 547.68414,590.99173 L 562.66691,505.98424 L 597.20613,505.98424 L 597.20613,485.63922 L 566.29431,485.63922 L 579.85766,409.62139 L 557.30466,409.62139 L 544.21445,485.63922 L 501.31642,485.63922 L 515.03747,409.62139 L 492.48446,409.62139 L 479.07883,485.63922 L 438.86193,485.63922 L 438.86193,505.98424 L 475.45142,505.98424 L 460.62637,590.99173 L 426.08714,590.99173 L 396.91019,591.14944 L 396.91019,460.08966 L 427.19114,460.08966 L 427.19114,439.27149 L 396.91019,439.27149 L 396.91019,385.49126 L 373.72632,385.49126 z M 196.14109,439.294 C 186.08681,439.29421 178.00401,442.74417 171.85324,449.54537 C 165.70242,456.34692 162.54816,464.76484 162.54816,474.93721 L 162.54816,574.74725 C 162.54816,585.39292 166.13609,594.36286 173.11495,601.4008 C 180.0937,608.43876 188.76794,611.96761 199.29538,611.96761 L 238.25056,611.96761 L 238.25056,657.38905 L 188.88628,657.38905 L 188.88628,634.3629 L 165.54471,634.3629 C 165.54471,636.13711 165.56439,639.07457 165.387,643.03713 C 165.20955,646.99965 165.07157,650.01589 165.07157,652.02679 C 165.07157,668.94148 171.81378,677.41858 185.41659,677.41864 L 241.56254,677.41864 C 254.92861,677.41858 261.59203,670.75522 261.59214,657.38905 L 261.59214,439.27149 L 238.25056,439.27149 L 238.25056,439.27149 C 213.61343,439.19847 198.86158,439.29421 196.14109,439.294 z M 301.80903,439.27149 L 301.80903,611.96761 L 325.15062,611.96761 L 325.15062,439.27149 L 301.80903,439.27149 z M 205.60389,460.11216 C 208.67923,460.11232 219.56145,460.439 238.25056,460.72051 L 238.25056,591.14944 L 205.60389,591.14944 C 192.59247,591.14949 186.0474,584.52554 186.04745,571.27756 L 186.04745,479.98405 C 186.0474,466.73623 192.59247,460.11232 205.60389,460.11216 z M 497.689,505.98424 L 540.42932,505.98424 L 525.13113,590.99173 L 482.86395,590.99173 L 497.689,505.98424 z"
       id="path3298"
       sodipodi:nodetypes="ccccccccccccccccccccccccccccccccccccccccccccccccsccsccccccsscccccccccccccccccccccccc" />
    <rect
       style="opacity:1;fill:#ffcc00;fill-opacity:1;fill-rule:nonzero;stroke:none;stroke-width:1;stroke-linecap:butt;stroke-linejoin:miter;marker:none;marker-start:none;marker-mid:none;marker-end:none;stroke-miterlimit:4;stroke-dasharray:none;stroke-dashoffset:0;stroke-opacity:1;visibility:visible;display:inline;overflow:visible;enable-background:accumulate"
       id="rect3306"
       width="23.571402"
       height="25.714291"
       x="22.857143"
       y="352.36218" />
    <rect
       style="opacity:1;fill:#ffcc00;fill-opacity:1;fill-rule:nonzero;stroke:none;stroke-width:1;stroke-linecap:butt;stroke-linejoin:miter;marker:none;marker-start:none;marker-mid:none;marker-end:none;stroke-miterlimit:4;stroke-dasharray:none;stroke-dashoffset:0;stroke-opacity:1;visibility:visible;display:inline;overflow:visible;enable-background:accumulate"
       id="rect3308"
       width="23.571402"
       height="24.285715"
       x="701.42859"
       y="662.36218" />
  </g>
</svg>
